# xmcd
#
# Track frame offsets:
# 151
# 17367
# 41276
# 63026
# 83779
# 96210
# 116249
# 134977
# 150575
# 176791
# 190969
# 205206
#
# Disc length: 3040 seconds
#
#
# Revision: 0
# Processed by: cddbd v1.5.1PL2 Copyright (c) Steve Scherf et al.
# Submitted via: FreeRIP 2.944 
#
DISCID=9f0bde0c
DTITLE=Carvin Jones - I'm What You Need
DYEAR=2006
DGENRE=Blues
TTITLE0=I'm What You Need
TTITLE1=Ya Drive Me Crazy
TTITLE2=Strawberry Shortcake
TTITLE3=Drowning On Dry Land
TTITLE4=Born To Win
TTITLE5=Havin' A Bad Day
TTITLE6=Lightning and Ice
TTITLE7=Stuck in The Mud
TTITLE8=One Night Stand
TTITLE9=Miss You Baby
TTITLE10=Wanna Walk Witcha Baby
TTITLE11=I Need Your Sweet Lovin'
EXTD=
EXTT0=
EXTT1=
EXTT2=
EXTT3=
EXTT4=
EXTT5=
EXTT6=
EXTT7=
EXTT8=
EXTT9=
EXTT10=
EXTT11=
PLAYORDER=
